<svg id="svg" version="1.1" width="400" height="400" viewBox="0 0 400 400" xmlns="http://www.w3.org/2000/svg" xmlns:xlink="http://www.w3.org/1999/xlink"><g id="svgg"><path id="path0" d="M193.200 31.622 C 189.931 31.879,185.191 32.407,184.229 32.622 C 183.751 32.729,182.761 32.899,182.029 32.999 C 177.094 33.680,167.761 36.085,164.470 37.524 C 164.123 37.676,163.701 37.800,163.532 37.800 C 163.362 37.800,163.172 37.883,163.110 37.985 C 163.047 38.086,162.707 38.233,162.354 38.310 C 162.002 38.387,161.575 38.527,161.407 38.619 C 161.238 38.712,160.335 39.097,159.400 39.474 C 149.754 43.368,138.003 50.611,130.817 57.092 C 130.422 57.447,129.515 58.260,128.800 58.897 C 126.359 61.072,122.350 65.097,120.529 67.200 C 119.528 68.355,118.655 69.345,118.589 69.400 C 118.522 69.455,117.576 70.670,116.485 72.100 C 115.395 73.530,114.351 74.880,114.165 75.100 C 113.500 75.889,108.800 82.732,108.800 82.912 C 108.800 82.953,108.339 83.769,107.775 84.723 C 106.813 86.352,102.800 94.206,102.800 94.460 C 102.800 94.524,102.450 95.324,102.022 96.238 C 100.964 98.500,100.746 99.043,98.901 104.000 C 98.642 104.695,97.591 108.073,97.095 109.800 C 96.788 110.872,96.339 112.740,95.894 114.800 C 95.716 115.625,95.450 116.840,95.302 117.500 C 94.587 120.706,93.899 125.349,93.496 129.700 C 93.214 132.745,93.187 142.266,93.241 221.000 L 93.300 308.900 127.667 308.900 L 162.035 308.900 162.517 308.339 C 163.099 307.663,163.176 306.045,162.702 304.482 C 162.538 303.942,162.403 303.308,162.402 303.073 C 162.401 302.838,162.260 302.163,162.089 301.573 C 161.305 298.872,160.591 295.981,159.700 291.900 C 159.507 291.020,159.231 289.805,159.086 289.200 C 158.941 288.595,158.680 287.425,158.507 286.600 C 157.834 283.396,157.176 280.478,156.704 278.600 C 156.552 277.995,156.282 276.870,156.104 276.100 C 155.926 275.330,155.645 274.115,155.480 273.400 C 155.315 272.685,155.045 271.515,154.880 270.800 C 154.715 270.085,154.455 269.005,154.301 268.400 C 154.147 267.795,153.872 266.625,153.689 265.800 C 153.107 263.170,152.828 261.935,152.493 260.500 C 152.313 259.730,152.043 258.560,151.893 257.900 C 151.742 257.240,151.485 256.115,151.320 255.400 C 151.155 254.685,150.885 253.515,150.720 252.800 C 150.555 252.085,150.272 250.870,150.093 250.100 C 149.685 248.355,149.254 246.489,148.869 244.800 C 148.706 244.085,148.448 243.005,148.296 242.400 C 148.013 241.273,147.686 239.844,147.107 237.200 C 146.926 236.375,146.686 235.350,146.573 234.922 C 146.460 234.493,146.290 233.728,146.195 233.222 C 146.101 232.715,145.891 231.760,145.730 231.100 C 145.568 230.440,145.294 229.292,145.121 228.549 C 144.948 227.806,144.663 226.591,144.486 225.849 C 143.939 223.541,143.622 222.149,143.339 220.800 C 143.189 220.085,142.971 219.185,142.855 218.800 C 142.739 218.415,142.493 217.380,142.308 216.500 C 142.124 215.620,141.836 214.315,141.669 213.600 C 140.994 210.710,140.796 209.835,140.492 208.400 C 140.318 207.575,140.091 206.585,139.989 206.200 C 139.800 205.486,138.641 200.552,138.111 198.200 C 137.950 197.485,137.685 196.315,137.523 195.600 C 137.361 194.885,137.079 193.625,136.897 192.800 C 136.174 189.532,135.975 188.650,135.679 187.400 C 135.510 186.685,135.288 185.785,135.187 185.400 C 133.965 180.756,133.907 179.453,134.880 178.480 L 135.560 177.800 158.156 177.800 C 178.946 177.800,180.773 177.774,181.026 177.469 C 181.495 176.902,181.324 152.399,180.848 152.029 C 180.566 151.810,179.244 151.777,173.833 151.854 C 166.658 151.957,166.010 151.901,165.219 151.109 L 164.700 150.591 164.700 139.745 C 164.700 127.853,164.680 128.056,165.900 127.717 C 166.120 127.656,181.606 127.604,200.313 127.603 L 234.325 127.600 234.913 128.213 L 235.500 128.827 235.449 138.563 C 235.420 143.919,235.398 148.816,235.399 149.447 C 235.400 150.433,235.318 150.685,234.816 151.247 L 234.231 151.900 226.936 151.832 C 221.796 151.784,219.516 151.831,219.220 151.989 C 218.647 152.296,218.545 176.916,219.114 177.486 C 219.396 177.768,221.732 177.800,241.833 177.800 C 266.944 177.800,265.019 177.683,265.826 179.255 C 266.141 179.869,266.177 180.149,266.020 180.755 C 265.774 181.705,265.301 183.708,264.900 185.500 C 264.728 186.270,264.462 187.440,264.309 188.100 C 264.156 188.760,263.882 189.975,263.701 190.800 C 263.114 193.471,262.590 195.780,261.931 198.600 C 261.764 199.315,261.439 200.710,261.209 201.700 C 260.979 202.690,260.708 203.815,260.606 204.200 C 260.306 205.340,259.392 209.325,258.520 213.300 C 258.227 214.635,257.963 215.797,257.293 218.699 C 257.128 219.414,256.858 220.584,256.693 221.299 C 256.528 222.014,256.258 223.184,256.093 223.899 C 255.928 224.614,255.658 225.784,255.493 226.499 C 255.328 227.214,255.058 228.384,254.893 229.099 C 254.728 229.814,254.452 231.006,254.280 231.749 C 254.108 232.492,253.842 233.685,253.690 234.400 C 253.537 235.115,253.267 236.330,253.088 237.100 C 252.910 237.870,252.693 238.815,252.606 239.200 C 252.453 239.884,252.238 240.776,251.690 243.000 C 251.423 244.085,251.071 245.603,250.517 248.050 C 250.176 249.558,249.741 251.444,249.330 253.200 C 249.162 253.915,248.885 255.153,248.713 255.950 C 247.974 259.376,247.750 260.351,247.510 261.200 C 247.369 261.695,247.099 262.820,246.908 263.700 C 246.411 266.002,246.003 267.785,245.770 268.678 C 245.658 269.107,245.488 269.872,245.392 270.378 C 245.101 271.906,244.672 273.846,244.413 274.800 C 243.960 276.476,243.564 278.107,242.665 282.000 C 242.081 284.534,241.814 285.717,241.517 287.100 C 240.735 290.737,240.550 291.583,240.289 292.700 C 240.135 293.360,239.863 294.575,239.685 295.400 C 239.506 296.225,239.043 298.160,238.656 299.700 C 236.698 307.486,236.680 308.010,238.351 308.709 C 239.318 309.112,306.793 309.153,306.812 308.750 C 306.969 305.467,306.780 131.744,306.618 130.100 C 306.023 124.069,305.666 121.313,305.234 119.400 C 305.122 118.905,304.883 117.780,304.703 116.900 C 304.523 116.020,304.256 114.850,304.110 114.300 C 303.302 111.258,303.128 110.612,302.872 109.700 C 302.231 107.415,301.946 106.473,301.753 106.000 C 301.640 105.725,301.475 105.230,301.387 104.900 C 301.298 104.570,300.899 103.400,300.500 102.300 C 300.101 101.200,299.699 100.075,299.605 99.800 C 299.356 99.066,298.418 96.748,298.229 96.400 C 298.139 96.235,297.583 94.975,296.993 93.600 C 296.403 92.225,295.668 90.669,295.360 90.141 C 295.052 89.614,294.800 89.149,294.800 89.108 C 294.800 89.067,294.395 88.348,293.900 87.511 C 293.405 86.674,293.000 85.949,293.000 85.901 C 293.000 85.791,290.995 82.464,290.048 81.000 C 287.408 76.925,287.737 77.397,284.823 73.500 C 279.870 66.877,272.080 58.907,266.100 54.342 C 265.220 53.671,264.380 53.003,264.233 52.858 C 263.524 52.159,252.095 44.800,251.718 44.800 C 251.649 44.800,251.238 44.577,250.806 44.304 C 246.997 41.899,237.002 37.716,230.500 35.806 C 230.060 35.677,229.250 35.436,228.700 35.270 C 219.045 32.365,203.745 30.793,193.200 31.622 " stroke="none" fill="#244c52" fill-rule="evenodd"></path><path id="path1" d="M0.000 200.000 L 0.000 400.000 200.000 400.000 L 400.000 400.000 400.000 200.000 L 400.000 0.000 200.000 0.000 L 0.000 0.000 0.000 200.000 M209.170 31.573 C 211.805 31.800,213.750 32.043,216.800 32.528 C 219.859 33.014,224.277 33.909,225.638 34.318 C 226.153 34.473,226.713 34.600,226.881 34.600 C 227.049 34.600,227.617 34.735,228.143 34.900 C 228.669 35.065,229.550 35.332,230.100 35.494 C 231.609 35.936,235.158 37.125,236.400 37.605 C 237.005 37.839,237.725 38.106,238.000 38.200 C 240.894 39.184,247.717 42.255,249.800 43.510 C 250.185 43.742,251.116 44.269,251.868 44.680 C 252.621 45.091,253.765 45.758,254.412 46.163 C 255.058 46.569,256.153 47.252,256.844 47.682 C 258.351 48.621,262.659 51.453,262.800 51.598 C 262.855 51.655,263.268 51.950,263.717 52.255 C 264.166 52.559,264.706 52.965,264.917 53.156 C 265.128 53.347,265.930 53.997,266.700 54.600 C 268.296 55.850,268.763 56.258,272.079 59.300 C 276.441 63.301,278.792 65.762,282.346 70.049 C 283.281 71.177,284.200 72.285,284.388 72.512 C 284.882 73.105,286.464 75.241,286.700 75.632 C 286.810 75.814,287.611 77.029,288.480 78.332 C 290.828 81.853,292.600 84.677,292.600 84.900 C 292.600 84.951,292.944 85.557,293.364 86.246 C 295.227 89.301,296.144 91.098,297.730 94.800 C 297.895 95.185,298.148 95.770,298.294 96.100 C 298.439 96.430,298.657 96.925,298.778 97.200 C 299.526 98.903,302.099 106.270,302.793 108.700 C 305.130 116.876,306.217 122.691,306.813 130.200 C 307.028 132.910,307.110 308.660,306.897 309.006 C 306.705 309.315,238.821 309.253,238.267 308.943 C 237.259 308.378,236.948 307.681,237.061 306.240 C 237.170 304.866,237.247 304.515,238.498 299.700 C 238.898 298.160,239.301 296.495,239.394 296.000 C 239.486 295.505,239.710 294.470,239.890 293.700 C 240.071 292.930,240.477 291.085,240.793 289.600 C 241.108 288.115,241.520 286.225,241.708 285.400 C 241.895 284.575,242.168 283.360,242.315 282.700 C 242.461 282.040,242.710 280.960,242.869 280.300 C 243.028 279.640,243.307 278.470,243.489 277.700 C 243.672 276.930,243.957 275.760,244.124 275.100 C 244.290 274.440,244.548 273.360,244.696 272.700 C 244.845 272.040,245.112 270.870,245.289 270.100 C 245.600 268.755,245.929 267.273,246.488 264.700 C 246.631 264.040,247.067 262.195,247.456 260.600 C 247.845 259.005,248.299 257.070,248.465 256.300 C 249.447 251.742,249.650 250.852,249.808 250.400 C 249.905 250.125,250.041 249.540,250.111 249.100 C 250.181 248.660,250.316 248.030,250.412 247.700 C 250.508 247.370,250.778 246.200,251.013 245.100 C 251.248 244.000,251.518 242.830,251.613 242.500 C 251.708 242.170,251.971 241.090,252.197 240.100 C 252.424 239.110,252.691 237.985,252.792 237.600 C 252.893 237.215,253.118 236.225,253.292 235.400 C 253.467 234.575,253.735 233.360,253.889 232.700 C 254.043 232.040,254.307 230.870,254.476 230.100 C 255.025 227.600,255.599 225.116,255.793 224.400 C 255.897 224.015,256.174 222.845,256.409 221.800 C 256.644 220.755,257.044 219.000,257.300 217.900 C 257.555 216.800,257.910 215.225,258.089 214.400 C 258.758 211.312,259.892 206.423,260.731 203.000 C 261.015 201.845,261.379 200.315,261.540 199.600 C 262.086 197.185,262.372 195.906,262.680 194.500 C 263.007 193.013,263.407 191.256,263.922 189.051 C 264.096 188.308,264.314 187.273,264.407 186.751 C 264.500 186.228,264.622 185.727,264.678 185.636 C 264.734 185.545,264.916 184.847,265.083 184.085 C 265.250 183.323,265.519 182.092,265.683 181.350 C 266.030 179.770,265.863 179.025,265.035 178.463 C 264.528 178.119,263.308 178.095,241.743 178.000 C 221.805 177.912,218.962 177.863,218.796 177.600 C 218.681 177.419,218.605 172.240,218.603 164.566 L 218.600 151.832 219.217 151.696 C 219.556 151.622,223.063 151.592,227.011 151.630 L 234.188 151.700 234.714 151.175 L 235.241 150.650 235.270 139.730 L 235.300 128.809 234.790 128.299 L 234.280 127.789 200.150 127.797 C 181.378 127.802,165.898 127.852,165.749 127.909 C 164.819 128.266,164.800 128.507,164.800 139.778 L 164.800 150.394 165.385 151.047 L 165.969 151.700 173.257 151.628 C 178.470 151.577,180.667 151.622,180.972 151.785 L 181.400 152.014 181.400 164.800 C 181.400 177.194,181.388 177.592,181.017 177.791 C 180.762 177.928,173.139 177.996,158.185 177.996 C 133.262 177.995,135.075 177.893,134.476 179.326 C 134.174 180.050,134.211 180.587,134.706 182.600 C 134.855 183.205,135.123 184.330,135.302 185.100 C 135.481 185.870,135.752 186.995,135.905 187.600 C 136.057 188.205,136.327 189.375,136.504 190.200 C 136.681 191.025,136.947 192.240,137.095 192.900 C 137.243 193.560,137.514 194.775,137.697 195.600 C 137.879 196.425,138.165 197.685,138.332 198.400 C 138.498 199.115,138.768 200.285,138.931 201.000 C 139.094 201.715,139.352 202.795,139.504 203.400 C 139.656 204.005,139.915 205.085,140.080 205.800 C 140.245 206.515,140.528 207.730,140.707 208.500 C 140.887 209.270,141.154 210.440,141.299 211.100 C 141.445 211.760,141.703 212.930,141.873 213.700 C 142.350 215.858,142.785 217.782,143.097 219.100 C 143.253 219.760,143.515 220.885,143.680 221.600 C 143.845 222.315,144.115 223.485,144.280 224.200 C 144.988 227.265,145.247 228.358,145.491 229.300 C 145.786 230.437,146.238 232.406,146.707 234.600 C 146.883 235.425,147.110 236.460,147.211 236.900 C 147.312 237.340,147.578 238.510,147.802 239.500 C 148.423 242.243,148.805 243.838,148.999 244.500 C 149.096 244.830,149.233 245.460,149.303 245.900 C 149.373 246.340,149.506 246.925,149.599 247.200 C 149.691 247.475,149.964 248.600,150.205 249.700 C 150.446 250.800,150.759 252.150,150.901 252.700 C 151.042 253.250,151.305 254.420,151.486 255.300 C 151.667 256.180,151.893 257.170,151.987 257.500 C 152.082 257.830,152.353 259.000,152.590 260.100 C 152.826 261.200,153.100 262.415,153.198 262.800 C 153.295 263.185,153.522 264.175,153.701 265.000 C 154.015 266.448,154.896 270.220,155.499 272.700 C 155.660 273.360,155.974 274.710,156.197 275.700 C 156.420 276.690,156.691 277.815,156.798 278.200 C 157.027 279.024,157.514 281.088,157.811 282.500 C 158.567 286.085,159.051 288.307,159.510 290.300 C 159.688 291.070,159.954 292.285,160.103 293.000 C 160.251 293.715,160.794 295.920,161.309 297.900 C 163.631 306.820,163.707 307.657,162.297 308.767 L 161.745 309.201 127.422 309.151 L 93.100 309.100 93.043 222.000 C 93.003 160.489,93.051 133.931,93.205 131.600 C 93.501 127.146,94.113 122.357,94.816 119.000 C 95.694 114.807,95.812 114.254,96.079 113.100 C 96.873 109.672,98.882 103.048,99.399 102.153 C 99.510 101.962,99.600 101.709,99.600 101.592 C 99.600 101.407,99.849 100.786,100.600 99.100 C 100.698 98.880,100.968 98.250,101.200 97.700 C 101.432 97.150,101.702 96.520,101.800 96.300 C 101.898 96.080,102.173 95.450,102.412 94.900 C 103.302 92.848,106.719 86.138,107.985 83.958 C 110.094 80.325,114.748 73.795,117.875 70.082 C 118.439 69.413,119.260 68.423,119.700 67.882 C 122.427 64.533,128.711 58.500,133.563 54.573 C 137.506 51.381,143.743 47.160,147.667 45.026 C 150.416 43.531,150.980 43.228,151.900 42.751 C 155.536 40.865,164.582 37.000,165.360 37.000 C 165.485 37.000,165.882 36.872,166.243 36.715 C 166.930 36.416,169.975 35.492,172.200 34.907 C 172.915 34.719,173.950 34.447,174.500 34.302 C 175.050 34.158,176.220 33.893,177.100 33.715 C 177.980 33.536,179.105 33.305,179.600 33.201 C 180.095 33.098,180.860 32.960,181.300 32.895 C 181.740 32.830,182.865 32.652,183.800 32.500 C 186.723 32.024,188.596 31.808,191.800 31.580 C 193.505 31.458,194.945 31.315,195.000 31.262 C 195.170 31.098,206.555 31.348,209.170 31.573 M250.865 189.187 C 252.406 189.545,252.467 190.221,251.382 194.900 C 251.051 196.330,250.641 198.130,250.472 198.900 C 249.729 202.281,249.571 202.957,249.304 203.900 C 249.148 204.450,248.834 205.710,248.606 206.700 C 248.378 207.690,248.108 208.815,248.007 209.200 C 247.804 209.973,247.376 211.898,246.895 214.200 C 246.582 215.699,246.301 216.954,245.732 219.400 C 245.565 220.115,245.279 221.375,245.097 222.200 C 244.914 223.025,244.642 224.195,244.492 224.800 C 244.342 225.405,244.074 226.530,243.896 227.300 C 243.718 228.070,243.452 229.195,243.305 229.800 C 243.157 230.405,242.887 231.620,242.703 232.500 C 242.520 233.380,242.287 234.426,242.185 234.824 C 242.083 235.222,241.913 235.987,241.807 236.524 C 241.625 237.447,241.423 238.365,240.732 241.400 C 240.218 243.661,238.407 251.431,237.982 253.200 C 237.400 255.621,237.065 257.083,236.696 258.800 C 236.519 259.625,236.238 260.885,236.070 261.600 C 235.577 263.702,235.239 265.202,234.896 266.800 C 234.579 268.278,234.315 269.439,233.715 272.000 C 233.547 272.715,233.267 273.975,233.092 274.800 C 232.918 275.625,232.691 276.615,232.589 277.000 C 232.179 278.538,230.611 285.168,230.413 286.200 C 230.297 286.805,230.074 287.840,229.919 288.500 C 229.433 290.560,228.366 295.440,228.104 296.800 C 227.466 300.116,228.207 299.881,218.029 300.000 C 204.645 300.157,174.584 300.016,173.900 299.794 C 172.835 299.447,172.476 298.652,171.688 294.900 C 171.346 293.275,170.746 290.553,170.408 289.100 C 170.306 288.660,170.078 287.625,169.902 286.800 C 169.506 284.944,169.255 283.874,168.118 279.200 C 167.328 275.948,166.897 274.118,166.213 271.100 C 166.113 270.660,165.895 269.715,165.729 269.000 C 165.563 268.285,165.279 266.980,165.098 266.100 C 164.772 264.514,164.405 262.812,163.889 260.500 C 163.742 259.840,163.482 258.670,163.312 257.900 C 163.005 256.513,162.363 253.771,161.194 248.850 C 160.861 247.447,160.462 245.760,160.308 245.100 C 160.153 244.440,159.884 243.293,159.710 242.551 C 159.125 240.063,158.767 238.509,158.501 237.300 C 157.575 233.106,157.362 232.166,156.693 229.300 C 156.513 228.530,156.232 227.315,156.069 226.600 C 155.906 225.885,155.650 224.805,155.500 224.200 C 154.859 221.615,154.336 219.239,153.099 213.300 C 152.916 212.420,152.691 211.475,152.600 211.200 C 152.508 210.925,152.233 209.800,151.990 208.700 C 151.746 207.600,151.328 205.845,151.060 204.800 C 150.792 203.755,150.496 202.540,150.404 202.100 C 150.311 201.660,150.091 200.670,149.915 199.900 C 149.739 199.130,149.363 197.375,149.080 196.000 C 148.797 194.625,148.438 193.009,148.283 192.408 C 147.711 190.201,148.105 189.396,149.863 189.182 C 151.504 188.983,250.004 188.987,250.865 189.187 " stroke="none" fill="#f1ebdc" fill-rule="evenodd"></path><path id="path2" d="M194.000 31.383 C 193.395 31.447,196.185 31.500,200.200 31.500 C 204.215 31.500,207.005 31.441,206.400 31.370 C 205.054 31.210,195.521 31.220,194.000 31.383 M190.650 31.746 C 191.063 31.789,191.738 31.789,192.150 31.746 C 192.563 31.703,192.225 31.667,191.400 31.667 C 190.575 31.667,190.238 31.703,190.650 31.746 M208.546 31.744 C 208.901 31.789,209.531 31.789,209.946 31.746 C 210.360 31.703,210.070 31.667,209.300 31.666 C 208.530 31.665,208.190 31.700,208.546 31.744 M187.400 32.000 C 186.356 32.220,187.573 32.229,188.800 32.010 L 189.700 31.850 188.900 31.851 C 188.460 31.852,187.785 31.919,187.400 32.000 M211.700 32.011 C 212.140 32.102,212.770 32.172,213.100 32.165 C 213.622 32.155,213.596 32.132,212.900 31.989 C 212.460 31.898,211.830 31.828,211.500 31.835 C 210.978 31.845,211.004 31.868,211.700 32.011 M185.253 32.344 C 185.557 32.389,186.007 32.388,186.253 32.341 C 186.499 32.293,186.250 32.256,185.700 32.257 C 185.150 32.259,184.949 32.298,185.253 32.344 M214.350 32.341 C 214.597 32.389,215.003 32.389,215.250 32.341 C 215.498 32.293,215.295 32.254,214.800 32.254 C 214.305 32.254,214.103 32.293,214.350 32.341 M183.563 32.503 C 183.506 32.560,182.929 32.684,182.280 32.779 C 181.316 32.920,181.247 32.952,181.900 32.956 C 182.842 32.963,184.992 32.461,184.183 32.424 C 183.899 32.411,183.620 32.447,183.563 32.503 M216.200 32.600 C 216.475 32.688,216.925 32.760,217.200 32.760 L 217.700 32.760 217.200 32.600 C 216.925 32.512,216.475 32.440,216.200 32.440 L 215.700 32.440 216.200 32.600 M218.250 32.938 C 218.443 32.988,218.757 32.988,218.950 32.938 C 219.143 32.888,218.985 32.846,218.600 32.846 C 218.215 32.846,218.058 32.888,218.250 32.938 M179.700 33.200 L 179.300 33.372 179.700 33.366 C 179.920 33.363,180.325 33.288,180.600 33.200 L 181.100 33.040 180.600 33.034 C 180.325 33.031,179.920 33.105,179.700 33.200 M219.700 33.200 C 219.920 33.295,220.280 33.372,220.500 33.372 L 220.900 33.372 220.500 33.200 C 220.280 33.105,219.920 33.028,219.700 33.028 L 219.300 33.028 219.700 33.200 M178.250 33.538 C 178.442 33.588,178.758 33.588,178.950 33.538 C 179.143 33.488,178.985 33.446,178.600 33.446 C 178.215 33.446,178.058 33.488,178.250 33.538 M221.250 33.538 C 221.443 33.588,221.757 33.588,221.950 33.538 C 222.143 33.488,221.985 33.446,221.600 33.446 C 221.215 33.446,221.058 33.488,221.250 33.538 M176.700 33.800 L 176.300 33.972 176.700 33.972 C 176.920 33.972,177.280 33.895,177.500 33.800 L 177.900 33.628 177.500 33.628 C 177.280 33.628,176.920 33.705,176.700 33.800 M222.700 33.800 C 222.920 33.895,223.280 33.972,223.500 33.972 L 223.900 33.972 223.500 33.800 C 223.280 33.705,222.920 33.628,222.700 33.628 L 222.300 33.628 222.700 33.800 M174.200 34.400 C 173.933 34.572,173.933 34.594,174.200 34.594 C 174.365 34.594,174.635 34.507,174.800 34.400 C 175.067 34.228,175.067 34.206,174.800 34.206 C 174.635 34.206,174.365 34.293,174.200 34.400 M225.400 34.400 C 225.565 34.507,225.835 34.594,226.000 34.594 C 226.267 34.594,226.267 34.572,226.000 34.400 C 225.835 34.293,225.565 34.206,225.400 34.206 C 225.133 34.206,225.133 34.228,225.400 34.400 M172.200 34.900 C 171.285 35.252,171.639 35.255,172.900 34.905 C 173.479 34.744,173.689 34.628,173.400 34.629 C 173.125 34.630,172.585 34.752,172.200 34.900 M227.800 35.000 C 227.965 35.107,228.235 35.194,228.400 35.194 C 228.667 35.194,228.667 35.172,228.400 35.000 C 228.235 34.893,227.965 34.806,227.800 34.806 C 227.533 34.806,227.533 34.828,227.800 35.000 M169.227 35.709 C 167.929 36.123,166.855 36.640,167.900 36.347 C 169.492 35.902,171.429 35.228,171.100 35.233 C 170.880 35.237,170.037 35.451,169.227 35.709 M229.500 35.506 C 229.940 35.664,230.390 35.788,230.500 35.781 C 230.855 35.757,229.514 35.218,229.100 35.218 C 228.880 35.218,229.060 35.347,229.500 35.506 M233.295 36.699 C 234.722 37.182,235.917 37.549,235.951 37.515 C 236.082 37.385,231.472 35.795,231.008 35.810 C 230.838 35.816,231.868 36.215,233.295 36.699 M166.200 36.700 C 165.561 37.065,165.698 37.067,166.700 36.706 C 167.140 36.547,167.320 36.417,167.100 36.416 C 166.880 36.415,166.475 36.543,166.200 36.700 M164.100 37.411 C 163.181 37.846,163.518 37.944,164.470 37.518 C 164.816 37.363,165.235 37.190,165.400 37.134 C 165.602 37.065,165.569 37.032,165.300 37.032 C 165.080 37.032,164.540 37.203,164.100 37.411 M236.773 37.908 C 237.143 38.069,237.503 38.197,237.573 38.193 C 237.833 38.178,236.688 37.614,236.400 37.615 C 236.235 37.615,236.403 37.747,236.773 37.908 M162.500 37.996 C 162.280 38.088,161.491 38.411,160.748 38.713 C 160.004 39.015,159.428 39.294,159.467 39.334 C 159.541 39.407,160.862 38.922,161.407 38.620 C 161.575 38.527,162.002 38.387,162.354 38.310 C 162.707 38.233,163.047 38.086,163.110 37.985 C 163.246 37.763,163.042 37.767,162.500 37.996 M238.373 38.508 C 238.743 38.669,239.103 38.797,239.173 38.793 C 239.433 38.778,238.288 38.214,238.000 38.215 C 237.835 38.215,238.003 38.347,238.373 38.508 M241.354 39.701 C 242.484 40.188,244.004 40.863,244.731 41.200 C 245.459 41.537,246.090 41.776,246.134 41.732 C 246.269 41.598,239.919 38.794,239.511 38.807 C 239.395 38.811,240.224 39.213,241.354 39.701 M158.400 39.700 C 158.125 39.857,157.990 39.986,158.100 39.986 C 158.210 39.986,158.525 39.857,158.800 39.700 C 159.075 39.543,159.210 39.414,159.100 39.414 C 158.990 39.414,158.675 39.543,158.400 39.700 M155.964 40.766 C 154.369 41.533,153.605 42.032,154.810 41.519 C 155.986 41.019,157.911 40.023,157.700 40.025 C 157.590 40.026,156.809 40.359,155.964 40.766 M246.600 42.006 C 246.765 42.116,247.613 42.573,248.484 43.021 C 249.355 43.470,250.421 44.060,250.852 44.333 C 251.284 44.606,251.679 44.788,251.729 44.737 C 251.827 44.639,249.912 43.528,247.800 42.459 C 246.510 41.806,246.024 41.623,246.600 42.006 M152.100 42.623 C 151.440 42.961,150.810 43.328,150.700 43.438 C 150.590 43.548,151.153 43.309,151.950 42.906 C 152.748 42.503,153.400 42.134,153.400 42.086 C 153.400 41.958,153.395 41.960,152.100 42.623 M147.155 45.280 C 146.108 45.902,145.942 46.131,146.900 45.632 C 147.903 45.110,148.359 44.801,148.100 44.822 C 147.990 44.831,147.565 45.037,147.155 45.280 M252.017 44.878 C 252.063 44.921,252.955 45.469,254.000 46.096 C 255.045 46.723,255.765 47.107,255.600 46.948 C 255.264 46.625,252.256 44.800,252.060 44.800 C 251.990 44.800,251.971 44.835,252.017 44.878 M143.310 47.607 C 141.185 48.933,140.886 49.284,142.900 48.090 C 144.324 47.245,145.255 46.586,144.993 46.608 C 144.942 46.612,144.185 47.062,143.310 47.607 M256.100 47.337 C 256.210 47.445,258.029 48.676,260.142 50.073 C 262.256 51.470,264.101 52.723,264.243 52.857 C 264.596 53.190,266.431 54.628,266.800 54.861 C 267.569 55.346,264.972 53.150,263.721 52.257 C 263.379 52.013,263.010 51.743,262.899 51.657 C 261.847 50.833,255.648 46.894,256.100 47.337 M140.200 49.626 C 139.705 49.964,139.165 50.378,139.000 50.547 C 138.835 50.716,139.263 50.478,139.950 50.019 C 140.638 49.561,141.200 49.143,141.200 49.093 C 141.200 48.950,141.161 48.971,140.200 49.626 M136.650 52.209 C 135.633 52.980,134.800 53.655,134.800 53.709 C 134.800 53.763,135.655 53.165,136.700 52.379 C 138.352 51.137,138.764 50.787,138.550 50.804 C 138.523 50.806,137.667 51.439,136.650 52.209 M134.022 54.212 C 133.759 54.431,133.586 54.652,133.638 54.704 C 133.689 54.756,133.943 54.574,134.201 54.299 C 134.762 53.702,134.681 53.662,134.022 54.212 M132.447 55.523 L 131.700 56.245 132.550 55.606 C 133.018 55.254,133.400 54.929,133.400 54.883 C 133.400 54.678,133.141 54.851,132.447 55.523 M267.200 55.033 C 267.200 55.086,268.348 56.156,269.750 57.411 C 276.162 63.152,280.228 67.448,284.362 72.850 C 285.519 74.363,286.502 75.564,286.547 75.520 C 286.724 75.343,282.352 69.907,279.173 66.351 C 276.612 63.486,272.008 59.082,267.642 55.319 C 267.399 55.109,267.200 54.981,267.200 55.033 M130.698 56.952 C 130.257 57.363,129.447 58.097,128.898 58.583 C 127.332 59.969,124.269 62.926,124.088 63.227 C 123.997 63.377,125.015 62.458,126.348 61.184 C 127.681 59.911,129.357 58.381,130.071 57.784 C 130.786 57.188,131.420 56.588,131.479 56.450 C 131.634 56.092,131.589 56.121,130.698 56.952 M122.800 64.397 C 122.635 64.578,122.050 65.219,121.500 65.821 C 119.831 67.646,118.129 69.742,119.419 68.383 C 121.000 66.718,123.240 64.175,123.173 64.123 C 123.133 64.092,122.965 64.215,122.800 64.397 M116.705 71.550 C 115.869 72.623,114.798 73.995,114.326 74.600 C 113.183 76.066,111.423 78.660,112.087 77.900 C 112.376 77.570,112.926 76.832,113.310 76.261 C 113.693 75.689,114.120 75.104,114.259 74.961 C 114.693 74.511,118.409 69.600,118.315 69.600 C 118.266 69.600,117.542 70.478,116.705 71.550 M286.925 76.325 C 287.126 76.641,287.339 76.945,287.397 77.000 C 287.629 77.219,290.794 82.127,291.808 83.842 C 292.180 84.470,292.515 84.952,292.553 84.914 C 292.618 84.849,291.538 82.990,290.511 81.400 C 288.460 78.224,286.946 75.990,286.769 75.881 C 286.653 75.809,286.723 76.009,286.925 76.325 M110.963 79.250 C 110.253 80.203,108.703 82.751,109.047 82.400 C 109.378 82.062,111.631 78.600,111.519 78.600 C 111.480 78.600,111.230 78.892,110.963 79.250 M108.350 83.307 C 108.158 83.565,108.000 83.822,108.000 83.879 C 108.000 83.936,107.726 84.447,107.391 85.015 C 107.056 85.584,106.813 86.080,106.852 86.119 C 106.891 86.158,107.349 85.460,107.869 84.569 C 108.811 82.958,109.018 82.414,108.350 83.307 M293.004 85.844 C 293.002 85.924,293.405 86.674,293.900 87.511 C 294.395 88.348,294.800 89.067,294.800 89.108 C 294.800 89.149,295.051 89.614,295.358 90.141 C 295.665 90.669,296.218 91.799,296.587 92.654 C 296.956 93.509,297.296 94.170,297.343 94.123 C 297.424 94.042,296.789 92.533,296.028 91.000 C 295.082 89.092,293.011 85.562,293.004 85.844 M106.200 87.200 C 105.976 87.640,105.837 88.000,105.892 88.000 C 105.947 88.000,106.176 87.640,106.400 87.200 C 106.624 86.760,106.763 86.400,106.708 86.400 C 106.653 86.400,106.424 86.760,106.200 87.200 M104.829 89.829 C 104.688 90.054,104.616 90.283,104.670 90.337 C 104.724 90.390,104.872 90.239,105.000 90.000 C 105.302 89.435,105.162 89.295,104.829 89.829 M104.229 91.029 C 104.088 91.254,104.016 91.483,104.070 91.537 C 104.124 91.590,104.272 91.439,104.400 91.200 C 104.702 90.635,104.562 90.495,104.229 91.029 M102.708 94.251 C 102.400 94.938,102.024 95.762,101.873 96.082 C 101.722 96.403,101.632 96.699,101.673 96.740 C 101.752 96.818,102.033 96.258,102.886 94.319 C 103.171 93.670,103.375 93.108,103.337 93.070 C 103.300 93.033,103.017 93.564,102.708 94.251 M297.408 94.538 C 297.423 94.837,298.584 97.103,298.592 96.849 C 298.596 96.711,298.420 96.263,298.200 95.852 C 297.980 95.442,297.800 94.997,297.800 94.865 C 297.800 94.732,297.710 94.568,297.600 94.500 C 297.490 94.432,297.404 94.449,297.408 94.538 M298.646 97.400 C 299.030 98.449,299.460 99.406,299.520 99.346 C 299.619 99.248,298.922 97.452,298.711 97.259 C 298.615 97.172,298.586 97.235,298.646 97.400 M299.615 99.800 C 299.614 100.088,300.178 101.233,300.193 100.973 C 300.197 100.903,300.069 100.543,299.908 100.173 C 299.747 99.803,299.615 99.635,299.615 99.800 M99.949 100.598 C 99.757 101.040,99.602 101.515,99.604 101.651 C 99.607 101.788,99.789 101.502,100.010 101.016 C 100.230 100.530,100.385 100.056,100.354 99.962 C 100.323 99.869,100.141 100.155,99.949 100.598 M300.200 101.337 C 300.200 101.636,301.158 104.227,301.323 104.374 C 301.400 104.443,301.398 104.320,301.318 104.100 C 301.238 103.880,300.990 103.160,300.768 102.500 C 300.361 101.291,300.200 100.962,300.200 101.337 M99.341 102.137 C 99.287 102.227,99.153 102.615,99.043 103.000 C 98.933 103.385,98.774 103.880,98.690 104.100 C 98.605 104.320,98.599 104.444,98.676 104.375 C 98.867 104.205,99.611 102.145,99.516 102.050 C 99.474 102.008,99.396 102.047,99.341 102.137 M97.939 106.339 C 97.631 107.277,97.419 108.085,97.468 108.134 C 97.517 108.183,97.803 107.450,98.104 106.504 C 98.405 105.559,98.618 104.751,98.576 104.709 C 98.534 104.667,98.247 105.401,97.939 106.339 M301.416 104.900 C 301.415 105.120,301.543 105.525,301.700 105.800 C 302.065 106.439,302.067 106.302,301.706 105.300 C 301.547 104.860,301.417 104.680,301.416 104.900 M302.009 106.627 C 302.004 106.807,302.131 107.257,302.292 107.627 C 302.670 108.497,302.679 108.136,302.306 107.100 C 302.147 106.660,302.014 106.447,302.009 106.627 M97.033 109.333 C 96.898 109.840,96.823 110.289,96.866 110.333 C 96.909 110.376,97.060 110.001,97.200 109.500 C 97.340 108.999,97.416 108.549,97.367 108.501 C 97.319 108.452,97.169 108.827,97.033 109.333 M302.624 108.700 C 302.632 109.188,303.165 110.621,303.182 110.200 C 303.188 110.035,303.064 109.540,302.906 109.100 C 302.747 108.660,302.620 108.480,302.624 108.700 M303.229 110.900 C 303.231 111.317,303.760 112.850,303.782 112.500 C 303.788 112.390,303.666 111.895,303.510 111.400 C 303.354 110.905,303.228 110.680,303.229 110.900 M96.325 111.908 C 96.256 112.086,96.208 112.383,96.217 112.566 C 96.227 112.750,96.314 112.635,96.411 112.310 C 96.599 111.679,96.532 111.366,96.325 111.908 M95.813 114.213 C 95.667 114.874,95.591 115.458,95.645 115.512 C 95.699 115.566,95.859 115.065,96.000 114.400 C 96.141 113.735,96.217 113.150,96.168 113.102 C 96.119 113.053,95.960 113.553,95.813 114.213 M304.006 114.000 C 304.006 114.165,304.093 114.435,304.200 114.600 C 304.372 114.867,304.394 114.867,304.394 114.600 C 304.394 114.435,304.307 114.165,304.200 114.000 C 304.028 113.733,304.006 113.733,304.006 114.000 M95.250 116.830 C 94.907 118.316,94.959 118.751,95.320 117.408 C 95.481 116.808,95.588 116.188,95.557 116.032 C 95.525 115.876,95.388 116.235,95.250 116.830 M304.628 116.500 C 304.628 116.720,304.705 117.080,304.800 117.300 L 304.972 117.700 304.972 117.300 C 304.972 117.080,304.895 116.720,304.800 116.500 L 304.628 116.100 304.628 116.500 M305.027 118.200 C 305.016 118.475,305.141 119.150,305.303 119.700 C 305.514 120.412,305.570 120.498,305.498 120.000 C 305.304 118.652,305.047 117.670,305.027 118.200 M94.613 119.913 C 94.470 120.631,94.392 121.259,94.440 121.307 C 94.488 121.355,94.645 120.806,94.788 120.088 C 94.930 119.369,95.008 118.741,94.960 118.693 C 94.912 118.645,94.755 119.194,94.613 119.913 M305.650 121.500 C 305.653 121.940,305.694 122.096,305.741 121.848 C 305.789 121.599,305.787 121.239,305.737 121.048 C 305.687 120.856,305.648 121.060,305.650 121.500 M94.254 122.600 C 94.254 123.095,94.293 123.297,94.341 123.050 C 94.389 122.803,94.389 122.397,94.341 122.150 C 94.293 121.903,94.254 122.105,94.254 122.600 M305.844 122.900 C 305.846 123.230,305.916 123.770,306.000 124.100 L 306.153 124.700 306.156 124.000 C 306.158 123.615,306.088 123.075,306.000 122.800 C 305.845 122.315,305.840 122.318,305.844 122.900 M93.938 124.005 C 93.865 124.277,93.814 124.770,93.825 125.100 C 93.840 125.579,93.880 125.518,94.021 124.800 C 94.214 123.817,94.151 123.209,93.938 124.005 M306.341 126.700 C 306.404 127.690,306.527 129.130,306.615 129.900 C 306.748 131.065,306.757 130.964,306.671 129.300 C 306.614 128.200,306.491 126.760,306.398 126.100 C 306.258 125.119,306.248 125.228,306.341 126.700 M93.657 126.900 C 93.659 127.450,93.698 127.651,93.744 127.347 C 93.789 127.043,93.788 126.593,93.741 126.347 C 93.693 126.101,93.656 126.350,93.657 126.900 M182.334 127.750 C 191.373 127.779,206.223 127.779,215.334 127.750 C 224.445 127.721,217.050 127.698,198.900 127.698 C 180.750 127.698,173.295 127.721,182.334 127.750 M233.700 127.746 C 234.430 127.851,235.192 128.520,235.223 129.085 C 235.244 129.450,235.258 129.455,235.342 129.130 C 235.492 128.547,234.456 127.594,233.713 127.630 L 233.100 127.660 233.700 127.746 M93.346 129.000 C 93.268 129.605,93.215 130.505,93.228 131.000 C 93.246 131.652,93.301 131.459,93.428 130.300 C 93.629 128.455,93.560 127.353,93.346 129.000 M164.693 139.800 C 164.693 145.465,164.719 147.782,164.750 144.950 C 164.781 142.118,164.781 137.483,164.750 134.650 C 164.719 131.817,164.693 134.135,164.693 139.800 M235.479 132.600 C 235.479 134.195,235.511 134.847,235.549 134.050 C 235.586 133.253,235.586 131.947,235.549 131.150 C 235.511 130.353,235.479 131.005,235.479 132.600 M306.883 135.300 C 306.884 137.390,306.913 138.218,306.949 137.140 C 306.985 136.061,306.985 134.351,306.949 133.340 C 306.913 132.328,306.883 133.210,306.883 135.300 M93.100 221.000 L 93.100 309.100 127.434 309.151 L 161.768 309.201 162.371 308.694 C 163.131 308.054,163.425 307.145,163.210 306.100 C 163.053 305.334,163.045 305.353,163.023 306.539 C 163.004 307.540,162.907 307.886,162.517 308.339 L 162.035 308.900 127.667 308.900 L 93.300 308.900 93.200 220.900 L 93.099 132.900 93.100 221.000 M235.288 141.300 C 235.288 144.380,235.316 145.612,235.350 144.038 C 235.383 142.464,235.383 139.944,235.349 138.438 C 235.316 136.932,235.288 138.220,235.288 141.300 M306.932 141.948 C 306.860 143.351,306.820 152.060,306.842 161.300 L 306.883 178.100 306.992 158.800 C 307.051 148.185,307.091 139.476,307.081 139.448 C 307.071 139.419,307.003 140.544,306.932 141.948 M164.800 150.532 C 164.800 150.641,165.048 150.948,165.350 151.215 L 165.900 151.700 165.400 151.100 C 165.125 150.770,164.878 150.463,164.850 150.417 C 164.822 150.371,164.800 150.423,164.800 150.532 M234.710 151.189 C 234.517 151.403,234.165 151.615,233.929 151.662 C 233.511 151.743,233.510 151.746,233.915 151.773 C 234.143 151.788,234.542 151.575,234.800 151.300 C 235.058 151.025,235.223 150.800,235.166 150.800 C 235.109 150.800,234.904 150.975,234.710 151.189 M176.140 151.793 C 178.925 151.857,180.864 151.983,180.987 152.107 C 181.118 152.238,181.215 154.559,181.250 158.407 L 181.306 164.500 181.353 158.257 C 181.410 150.733,182.092 151.586,176.063 151.643 L 171.500 151.686 176.140 151.793 M218.950 151.738 C 218.550 151.843,218.400 176.973,218.796 177.600 C 218.962 177.864,221.734 177.900,241.743 177.903 L 264.500 177.906 241.843 177.803 C 221.996 177.713,219.162 177.663,218.996 177.400 C 218.687 176.911,218.739 152.263,219.050 152.062 C 219.188 151.973,221.280 151.852,223.700 151.792 L 228.100 151.685 223.700 151.666 C 221.280 151.655,219.143 151.688,218.950 151.738 M167.750 151.946 C 168.218 151.989,168.983 151.989,169.450 151.946 C 169.918 151.904,169.535 151.870,168.600 151.870 C 167.665 151.870,167.283 151.904,167.750 151.946 M229.758 151.948 C 230.450 151.987,231.530 151.987,232.158 151.948 C 232.786 151.908,232.220 151.876,230.900 151.876 C 229.580 151.877,229.066 151.909,229.758 151.948 M181.240 175.826 C 181.184 177.971,182.267 177.789,169.181 177.850 L 157.700 177.903 169.212 177.952 C 182.587 178.008,181.449 178.201,181.349 175.896 L 181.280 174.300 181.240 175.826 M134.880 178.480 C 134.506 178.854,134.204 179.327,134.208 179.530 C 134.213 179.780,134.300 179.706,134.477 179.300 C 135.024 178.046,134.450 178.110,146.281 177.997 L 157.100 177.893 146.330 177.847 L 135.560 177.800 134.880 178.480 M265.875 180.258 C 265.859 181.023,265.874 181.050,266.043 180.558 C 266.145 180.259,266.153 179.881,266.061 179.715 C 265.948 179.514,265.887 179.692,265.875 180.258 M306.854 180.600 C 306.854 181.095,306.893 181.298,306.941 181.050 C 306.989 180.803,306.989 180.398,306.941 180.150 C 306.893 179.903,306.854 180.105,306.854 180.600 M134.422 182.000 C 134.420 182.165,134.543 182.750,134.695 183.300 C 134.848 183.850,134.978 184.120,134.983 183.900 C 134.989 183.680,134.866 183.095,134.710 182.600 C 134.554 182.105,134.425 181.835,134.422 182.000 M265.314 182.914 C 265.241 183.207,265.219 183.486,265.266 183.533 C 265.313 183.580,265.412 183.379,265.486 183.086 C 265.559 182.793,265.581 182.514,265.534 182.467 C 265.487 182.420,265.388 182.621,265.314 182.914 M306.886 188.600 C 306.886 191.075,306.914 192.088,306.949 190.850 C 306.984 189.613,306.984 187.588,306.949 186.350 C 306.914 185.113,306.886 186.125,306.886 188.600 M135.017 184.700 C 135.011 184.920,135.093 185.235,135.200 185.400 C 135.457 185.798,135.457 185.298,135.200 184.700 L 135.028 184.300 135.017 184.700 M264.608 185.870 C 264.473 186.355,264.405 186.920,264.458 187.126 C 264.528 187.399,264.560 187.359,264.577 186.980 C 264.590 186.694,264.700 186.172,264.823 185.820 C 264.946 185.468,265.003 185.137,264.951 185.084 C 264.898 185.032,264.744 185.385,264.608 185.870 M135.624 187.100 C 135.621 187.210,135.743 187.750,135.895 188.300 C 136.056 188.879,136.172 189.089,136.171 188.800 C 136.170 188.328,135.638 186.675,135.624 187.100 M264.114 188.114 C 264.041 188.407,264.019 188.686,264.066 188.733 C 264.113 188.780,264.212 188.579,264.286 188.286 C 264.359 187.993,264.381 187.714,264.334 187.667 C 264.287 187.620,264.188 187.821,264.114 188.114 M149.863 189.182 C 148.105 189.396,147.711 190.201,148.283 192.408 C 148.438 193.009,148.797 194.625,149.080 196.000 C 149.363 197.375,149.739 199.130,149.915 199.900 C 150.091 200.670,150.311 201.660,150.404 202.100 C 150.496 202.540,150.792 203.755,151.060 204.800 C 151.328 205.845,151.746 207.600,151.990 208.700 C 152.233 209.800,152.508 210.925,152.600 211.200 C 152.691 211.475,152.916 212.420,153.099 213.300 C 154.336 219.239,154.859 221.615,155.500 224.200 C 155.650 224.805,155.906 225.885,156.069 226.600 C 156.232 227.315,156.513 228.530,156.693 229.300 C 157.362 232.166,157.575 233.106,158.501 237.300 C 158.767 238.509,159.125 240.063,159.710 242.551 C 159.884 243.293,160.153 244.440,160.308 245.100 C 160.462 245.760,160.861 247.447,161.194 248.850 C 162.363 253.771,163.005 256.513,163.312 257.900 C 163.482 258.670,163.742 259.840,163.889 260.500 C 164.405 262.812,164.772 264.514,165.098 266.100 C 165.279 266.980,165.563 268.285,165.729 269.000 C 165.895 269.715,166.113 270.660,166.213 271.100 C 166.897 274.118,167.328 275.948,168.118 279.200 C 169.255 283.874,169.506 284.944,169.902 286.800 C 170.078 287.625,170.306 288.660,170.408 289.100 C 170.746 290.553,171.346 293.275,171.688 294.900 C 172.476 298.652,172.835 299.447,173.900 299.794 C 174.584 300.016,204.645 300.157,218.029 300.000 C 228.207 299.881,227.466 300.116,228.104 296.800 C 228.366 295.440,229.433 290.560,229.919 288.500 C 230.074 287.840,230.297 286.805,230.413 286.200 C 230.611 285.168,232.179 278.538,232.589 277.000 C 232.691 276.615,232.918 275.625,233.092 274.800 C 233.267 273.975,233.547 272.715,233.715 272.000 C 234.315 269.439,234.579 268.278,234.896 266.800 C 235.239 265.202,235.577 263.702,236.070 261.600 C 236.238 260.885,236.519 259.625,236.696 258.800 C 237.065 257.083,237.400 255.621,237.982 253.200 C 238.407 251.431,240.218 243.661,240.732 241.400 C 241.423 238.365,241.625 237.447,241.807 236.524 C 241.913 235.987,242.083 235.222,242.185 234.824 C 242.287 234.426,242.520 233.380,242.703 232.500 C 242.887 231.620,243.157 230.405,243.305 229.800 C 243.452 229.195,243.718 228.070,243.896 227.300 C 244.074 226.530,244.342 225.405,244.492 224.800 C 244.642 224.195,244.914 223.025,245.097 222.200 C 245.279 221.375,245.565 220.115,245.732 219.400 C 246.301 216.954,246.582 215.699,246.895 214.200 C 247.376 211.898,247.804 209.973,248.007 209.200 C 248.108 208.815,248.378 207.690,248.606 206.700 C 248.834 205.710,249.148 204.450,249.304 203.900 C 249.571 202.957,249.729 202.281,250.472 198.900 C 250.641 198.130,251.051 196.330,251.382 194.900 C 252.467 190.221,252.406 189.545,250.865 189.187 C 250.004 188.987,151.504 188.983,149.863 189.182 M136.234 189.700 C 136.231 189.920,136.305 190.280,136.400 190.500 C 136.619 191.010,136.619 190.484,136.400 189.800 C 136.271 189.398,136.239 189.378,136.234 189.700 M263.435 191.044 C 263.306 191.557,263.206 192.140,263.213 192.339 C 263.220 192.537,263.358 192.212,263.518 191.615 C 263.679 191.018,263.778 190.435,263.740 190.320 C 263.702 190.205,263.564 190.530,263.435 191.044 M136.830 192.400 C 136.823 192.565,136.943 193.150,137.095 193.700 C 137.256 194.278,137.372 194.489,137.371 194.200 C 137.369 193.648,136.849 191.920,136.830 192.400 M262.900 193.400 C 262.824 193.746,262.807 194.074,262.862 194.129 C 262.917 194.184,263.024 193.946,263.100 193.600 C 263.176 193.254,263.193 192.926,263.138 192.871 C 263.083 192.816,262.976 193.054,262.900 193.400 M306.866 194.500 C 306.867 195.270,306.903 195.560,306.946 195.146 C 306.989 194.731,306.989 194.101,306.944 193.746 C 306.900 193.390,306.865 193.730,306.866 194.500 M137.428 195.200 C 137.428 195.365,137.505 195.680,137.600 195.900 C 137.708 196.152,137.772 196.189,137.772 196.000 C 137.772 195.835,137.695 195.520,137.600 195.300 C 137.492 195.048,137.428 195.011,137.428 195.200 M262.337 195.876 C 262.262 196.072,262.206 196.383,262.213 196.566 C 262.221 196.787,262.291 196.737,262.418 196.417 C 262.525 196.152,262.580 195.841,262.542 195.727 C 262.504 195.613,262.412 195.681,262.337 195.876 M138.028 197.800 C 138.028 197.965,138.105 198.280,138.200 198.500 C 138.308 198.752,138.372 198.789,138.372 198.600 C 138.372 198.435,138.295 198.120,138.200 197.900 C 138.092 197.648,138.028 197.611,138.028 197.800 M261.714 198.714 C 261.641 199.007,261.619 199.286,261.666 199.333 C 261.713 199.380,261.812 199.179,261.886 198.886 C 261.959 198.593,261.981 198.314,261.934 198.267 C 261.887 198.220,261.788 198.421,261.714 198.714 M307.062 199.500 C 307.063 200.160,307.100 200.406,307.145 200.046 C 307.189 199.687,307.189 199.147,307.143 198.846 C 307.097 198.546,307.061 198.840,307.062 199.500 M138.630 200.400 C 138.623 200.565,138.743 201.150,138.895 201.700 C 139.056 202.278,139.172 202.489,139.171 202.200 C 139.169 201.648,138.649 199.920,138.630 200.400 M261.114 201.314 C 261.041 201.607,261.019 201.886,261.066 201.933 C 261.113 201.980,261.212 201.779,261.286 201.486 C 261.359 201.193,261.381 200.914,261.334 200.867 C 261.287 200.820,261.188 201.021,261.114 201.314 M307.078 203.500 C 307.078 204.930,307.110 205.489,307.148 204.742 C 307.187 203.995,307.187 202.825,307.148 202.142 C 307.109 201.459,307.077 202.070,307.078 203.500 M139.224 202.900 C 139.221 203.010,139.343 203.550,139.495 204.100 C 139.656 204.679,139.772 204.889,139.771 204.600 C 139.770 204.128,139.238 202.475,139.224 202.900 M260.514 203.714 C 260.441 204.007,260.426 204.292,260.481 204.347 C 260.536 204.402,260.641 204.207,260.714 203.914 C 260.788 203.621,260.803 203.336,260.748 203.281 C 260.693 203.226,260.588 203.421,260.514 203.714 M139.817 205.500 C 139.811 205.720,139.893 206.035,140.000 206.200 C 140.257 206.598,140.257 206.098,140.000 205.500 L 139.828 205.100 139.817 205.500 M259.914 206.314 C 259.841 206.607,259.819 206.886,259.866 206.933 C 259.913 206.980,260.012 206.779,260.086 206.486 C 260.159 206.193,260.181 205.914,260.134 205.867 C 260.087 205.820,259.988 206.021,259.914 206.314 M259.433 208.311 C 259.289 208.930,259.212 209.479,259.263 209.530 C 259.387 209.654,259.856 207.668,259.766 207.398 C 259.727 207.280,259.577 207.691,259.433 208.311 M140.499 208.300 C 140.550 208.630,140.738 209.530,140.916 210.300 C 141.094 211.070,141.311 212.015,141.397 212.400 C 141.510 212.903,141.560 212.968,141.577 212.633 C 141.600 212.169,141.187 210.322,140.674 208.600 C 140.527 208.105,140.449 207.970,140.499 208.300 M306.934 208.350 C 306.776 209.239,306.786 210.681,306.953 210.936 C 307.037 211.066,307.132 210.414,307.164 209.486 C 307.221 207.805,307.120 207.306,306.934 208.350 M258.714 211.514 C 258.641 211.807,258.626 212.092,258.681 212.147 C 258.736 212.202,258.841 212.007,258.914 211.714 C 258.988 211.421,259.003 211.136,258.948 211.081 C 258.893 211.026,258.788 211.221,258.714 211.514 M141.628 213.400 C 141.628 213.565,141.705 213.880,141.800 214.100 C 141.908 214.352,141.972 214.389,141.972 214.200 C 141.972 214.035,141.895 213.720,141.800 213.500 C 141.692 213.248,141.628 213.211,141.628 213.400 M258.100 214.200 C 258.024 214.546,258.007 214.874,258.062 214.929 C 258.117 214.984,258.224 214.746,258.300 214.400 C 258.376 214.054,258.393 213.726,258.338 213.671 C 258.283 213.616,258.176 213.854,258.100 214.200 M142.228 216.100 C 142.228 216.320,142.305 216.680,142.400 216.900 L 142.572 217.300 142.572 216.900 C 142.572 216.680,142.495 216.320,142.400 216.100 L 142.228 215.700 142.228 216.100 M257.514 216.914 C 257.441 217.207,257.419 217.486,257.466 217.533 C 257.513 217.580,257.612 217.379,257.686 217.086 C 257.759 216.793,257.781 216.514,257.734 216.467 C 257.687 216.420,257.588 216.621,257.514 216.914 M307.027 216.934 C 307.012 217.172,306.948 217.532,306.885 217.734 C 306.776 218.080,306.782 218.081,306.998 217.744 C 307.124 217.549,307.188 217.189,307.140 216.944 C 307.055 216.500,307.054 216.500,307.027 216.934 M142.629 217.800 C 142.630 218.075,142.752 218.615,142.900 219.000 C 143.252 219.915,143.255 219.561,142.905 218.300 C 142.744 217.721,142.628 217.511,142.629 217.800 M257.033 218.911 C 256.889 219.530,256.812 220.079,256.863 220.130 C 256.987 220.254,257.456 218.268,257.366 217.998 C 257.327 217.880,257.177 218.291,257.033 218.911 M143.417 221.300 C 143.411 221.520,143.493 221.835,143.600 222.000 C 143.857 222.398,143.857 221.898,143.600 221.300 L 143.428 220.900 143.417 221.300 M256.314 222.114 C 256.241 222.407,256.219 222.686,256.266 222.733 C 256.313 222.780,256.412 222.579,256.486 222.286 C 256.559 221.993,256.581 221.714,256.534 221.667 C 256.487 221.620,256.388 221.821,256.314 222.114 M144.017 223.900 C 144.011 224.120,144.093 224.435,144.200 224.600 C 144.457 224.998,144.457 224.498,144.200 223.900 L 144.028 223.500 144.017 223.900 M255.737 224.476 C 255.662 224.672,255.606 224.983,255.613 225.166 C 255.621 225.387,255.691 225.337,255.818 225.017 C 255.925 224.752,255.980 224.441,255.942 224.327 C 255.904 224.213,255.812 224.281,255.737 224.476 M306.872 226.400 C 306.872 227.445,306.906 227.873,306.947 227.350 C 306.988 226.828,306.988 225.972,306.947 225.450 C 306.906 224.928,306.872 225.355,306.872 226.400 M255.233 226.711 C 255.089 227.330,255.012 227.879,255.063 227.930 C 255.187 228.054,255.656 226.068,255.566 225.798 C 255.527 225.680,255.377 226.091,255.233 226.711 M144.628 226.400 C 144.628 226.565,144.705 226.880,144.800 227.100 C 144.908 227.352,144.972 227.389,144.972 227.200 C 144.972 227.035,144.895 226.720,144.800 226.500 C 144.692 226.248,144.628 226.211,144.628 226.400 M254.633 229.311 C 254.489 229.930,254.412 230.479,254.463 230.530 C 254.587 230.654,255.056 228.668,254.966 228.398 C 254.927 228.280,254.777 228.691,254.633 229.311 M145.215 228.900 C 145.216 229.010,145.350 229.550,145.512 230.100 L 145.807 231.100 145.696 230.219 C 145.599 229.445,145.208 228.373,145.215 228.900 M306.896 251.400 C 306.896 263.225,306.921 268.063,306.950 262.150 C 306.979 256.238,306.979 246.563,306.950 240.650 C 306.921 234.738,306.896 239.575,306.896 251.400 M145.817 231.500 C 145.811 231.720,145.893 232.035,146.000 232.200 C 146.257 232.598,146.257 232.098,146.000 231.500 L 145.828 231.100 145.817 231.500 M253.914 232.514 C 253.841 232.807,253.819 233.086,253.866 233.133 C 253.913 233.180,254.012 232.979,254.086 232.686 C 254.159 232.393,254.181 232.114,254.134 232.067 C 254.087 232.020,253.988 232.221,253.914 232.514 M146.238 233.100 C 146.234 233.430,146.357 234.060,146.512 234.500 C 146.790 235.292,146.792 235.293,146.674 234.600 C 146.392 232.937,146.247 232.438,146.238 233.100 M253.300 235.200 C 253.224 235.546,253.207 235.874,253.262 235.929 C 253.317 235.984,253.424 235.746,253.500 235.400 C 253.576 235.054,253.593 234.726,253.538 234.671 C 253.483 234.616,253.376 234.854,253.300 235.200 M147.028 236.800 C 147.028 236.965,147.105 237.280,147.200 237.500 C 147.308 237.752,147.372 237.789,147.372 237.600 C 147.372 237.435,147.295 237.120,147.200 236.900 C 147.092 236.648,147.028 236.611,147.028 236.800 M252.737 237.676 C 252.662 237.872,252.606 238.183,252.613 238.366 C 252.621 238.587,252.691 238.537,252.818 238.217 C 252.925 237.952,252.980 237.641,252.942 237.527 C 252.904 237.413,252.812 237.481,252.737 237.676 M147.429 238.600 C 147.431 239.152,147.951 240.880,147.970 240.400 C 147.977 240.235,147.857 239.650,147.705 239.100 C 147.544 238.522,147.428 238.311,147.429 238.600 M252.352 239.400 C 252.277 239.785,252.165 240.325,252.104 240.600 C 252.042 240.875,252.132 240.740,252.303 240.300 C 252.474 239.860,252.586 239.320,252.552 239.100 C 252.511 238.837,252.442 238.940,252.352 239.400 M148.029 241.200 C 148.030 241.475,148.152 242.015,148.300 242.400 C 148.652 243.315,148.655 242.961,148.305 241.700 C 148.144 241.121,148.028 240.911,148.029 241.200 M251.758 241.800 C 251.687 242.185,251.576 242.770,251.512 243.100 C 251.422 243.560,251.467 243.514,251.705 242.900 C 251.876 242.460,251.987 241.875,251.952 241.600 C 251.897 241.173,251.869 241.202,251.758 241.800 M251.029 244.929 C 250.887 245.538,250.808 246.075,250.853 246.120 C 250.898 246.165,251.055 245.706,251.200 245.100 C 251.345 244.494,251.424 243.958,251.375 243.909 C 251.326 243.860,251.170 244.319,251.029 244.929 M148.817 244.600 C 148.823 244.765,148.905 245.080,149.000 245.300 L 149.172 245.700 149.183 245.300 C 149.189 245.080,149.107 244.765,149.000 244.600 C 148.828 244.333,148.807 244.333,148.817 244.600 M149.417 247.200 C 149.423 247.365,149.505 247.680,149.600 247.900 L 149.772 248.300 149.783 247.900 C 149.789 247.680,149.707 247.365,149.600 247.200 C 149.428 246.933,149.407 246.933,149.417 247.200 M250.337 247.876 C 250.262 248.072,250.206 248.383,250.213 248.566 C 250.221 248.787,250.291 248.737,250.418 248.417 C 250.525 248.152,250.580 247.841,250.542 247.727 C 250.504 247.613,250.412 247.681,250.337 247.876 M149.829 248.800 C 149.831 249.352,150.351 251.080,150.370 250.600 C 150.377 250.435,150.257 249.850,150.105 249.300 C 149.944 248.722,149.828 248.511,149.829 248.800 M249.737 250.476 C 249.662 250.672,249.606 250.983,249.613 251.166 C 249.621 251.387,249.691 251.337,249.818 251.017 C 249.925 250.752,249.980 250.441,249.942 250.327 C 249.904 250.213,249.812 250.281,249.737 250.476 M150.412 251.314 C 150.405 251.541,150.524 252.171,150.675 252.714 C 150.826 253.256,151.059 254.224,151.192 254.866 C 151.326 255.507,151.482 255.984,151.539 255.927 C 151.596 255.870,151.529 255.346,151.391 254.762 C 150.771 252.157,150.423 250.931,150.412 251.314 M249.233 252.711 C 249.089 253.330,249.012 253.879,249.063 253.930 C 249.187 254.054,249.656 252.068,249.566 251.798 C 249.527 251.680,249.377 252.091,249.233 252.711 M248.500 256.000 C 248.424 256.346,248.404 256.670,248.455 256.721 C 248.506 256.772,248.605 256.526,248.675 256.175 C 248.745 255.824,248.766 255.499,248.720 255.454 C 248.675 255.408,248.576 255.654,248.500 256.000 M151.817 257.600 C 151.823 257.765,151.905 258.080,152.000 258.300 L 152.172 258.700 152.183 258.300 C 152.189 258.080,152.107 257.765,152.000 257.600 C 151.828 257.333,151.807 257.333,151.817 257.600 M247.900 258.800 C 247.824 259.146,247.804 259.470,247.855 259.521 C 247.906 259.572,248.005 259.326,248.075 258.975 C 248.145 258.624,248.166 258.299,248.120 258.254 C 248.075 258.208,247.976 258.454,247.900 258.800 M152.229 259.200 C 152.231 259.752,152.751 261.480,152.770 261.000 C 152.777 260.835,152.657 260.250,152.505 259.700 C 152.344 259.122,152.228 258.911,152.229 259.200 M247.433 260.733 C 247.298 261.240,247.223 261.689,247.266 261.733 C 247.309 261.776,247.460 261.401,247.600 260.900 C 247.740 260.399,247.816 259.949,247.767 259.901 C 247.719 259.852,247.569 260.227,247.433 260.733 M246.815 263.215 C 246.673 263.770,246.602 264.268,246.656 264.323 C 246.710 264.377,246.865 263.962,247.000 263.400 C 247.135 262.838,247.207 262.340,247.159 262.293 C 247.112 262.246,246.958 262.661,246.815 263.215 M153.017 262.800 C 153.023 262.965,153.105 263.280,153.200 263.500 L 153.372 263.900 153.383 263.500 C 153.389 263.280,153.307 262.965,153.200 262.800 C 153.028 262.533,153.007 262.533,153.017 262.800 M153.417 264.500 C 153.411 264.720,153.534 265.305,153.690 265.800 C 154.056 266.962,154.068 266.408,153.705 265.100 C 153.552 264.550,153.422 264.280,153.417 264.500 M246.339 265.350 C 246.015 266.869,246.003 267.284,246.310 266.332 C 246.482 265.800,246.590 265.215,246.550 265.032 C 246.508 264.841,246.419 264.975,246.339 265.350 M154.029 267.200 C 154.030 267.475,154.152 268.015,154.300 268.400 C 154.652 269.315,154.655 268.961,154.305 267.700 C 154.144 267.121,154.028 266.911,154.029 267.200 M245.629 268.529 C 245.487 269.138,245.408 269.675,245.453 269.720 C 245.498 269.765,245.655 269.306,245.800 268.700 C 245.945 268.094,246.024 267.558,245.975 267.509 C 245.926 267.460,245.770 267.919,245.629 268.529 M154.616 269.600 C 154.611 269.765,154.734 270.305,154.890 270.800 C 155.046 271.295,155.178 271.565,155.184 271.400 C 155.189 271.235,155.066 270.695,154.910 270.200 C 154.754 269.705,154.622 269.435,154.616 269.600 M245.017 271.251 C 244.862 271.884,244.795 272.462,244.868 272.534 C 244.941 272.607,245.000 272.466,245.000 272.220 C 245.000 271.975,245.096 271.595,245.213 271.377 C 245.329 271.158,245.397 270.782,245.362 270.540 C 245.323 270.269,245.191 270.542,245.017 271.251 M155.216 272.200 C 155.211 272.365,155.334 272.905,155.490 273.400 C 155.646 273.895,155.778 274.165,155.784 274.000 C 155.789 273.835,155.666 273.295,155.510 272.800 C 155.354 272.305,155.222 272.035,155.216 272.200 M244.555 273.300 C 244.199 274.938,244.190 275.112,244.504 274.300 C 244.675 273.860,244.785 273.320,244.750 273.100 C 244.701 272.798,244.653 272.848,244.555 273.300 M155.817 274.700 C 155.811 274.920,155.934 275.505,156.090 276.000 C 156.456 277.162,156.468 276.608,156.105 275.300 C 155.952 274.750,155.822 274.480,155.817 274.700 M243.955 275.700 C 243.599 277.338,243.590 277.512,243.904 276.700 C 244.075 276.260,244.185 275.720,244.150 275.500 C 244.101 275.198,244.053 275.248,243.955 275.700 M156.436 277.400 C 156.433 277.675,156.559 278.215,156.717 278.600 C 157.022 279.347,156.984 278.892,156.632 277.600 C 156.479 277.040,156.440 277.000,156.436 277.400 M243.229 278.729 C 243.087 279.338,243.008 279.875,243.053 279.920 C 243.098 279.965,243.255 279.506,243.400 278.900 C 243.545 278.294,243.624 277.758,243.575 277.709 C 243.526 277.660,243.370 278.119,243.229 278.729 M306.806 291.015 C 306.798 297.978,306.834 303.633,306.886 303.580 C 307.023 303.444,307.070 278.604,306.934 278.468 C 306.872 278.405,306.814 284.051,306.806 291.015 M157.017 279.700 C 157.011 279.920,157.134 280.505,157.290 281.000 C 157.656 282.162,157.668 281.608,157.305 280.300 C 157.152 279.750,157.022 279.480,157.017 279.700 M242.739 280.750 C 242.415 282.269,242.403 282.684,242.710 281.732 C 242.882 281.200,242.990 280.615,242.950 280.432 C 242.908 280.241,242.819 280.375,242.739 280.750 M242.029 283.929 C 241.887 284.538,241.808 285.075,241.853 285.120 C 241.898 285.165,242.055 284.706,242.200 284.100 C 242.345 283.494,242.424 282.958,242.375 282.909 C 242.326 282.860,242.170 283.319,242.029 283.929 M157.817 283.400 C 157.823 283.565,157.905 283.880,158.000 284.100 L 158.172 284.500 158.183 284.100 C 158.189 283.880,158.107 283.565,158.000 283.400 C 157.828 283.133,157.807 283.133,157.817 283.400 M241.413 286.613 C 241.267 287.274,241.191 287.858,241.245 287.912 C 241.299 287.966,241.459 287.465,241.600 286.800 C 241.741 286.135,241.817 285.550,241.768 285.502 C 241.719 285.453,241.560 285.953,241.413 286.613 M158.423 286.200 C 158.432 286.365,158.512 286.725,158.600 287.000 L 158.760 287.500 158.777 287.000 C 158.786 286.725,158.707 286.365,158.600 286.200 C 158.428 285.933,158.408 285.933,158.423 286.200 M158.817 287.900 C 158.811 288.120,158.934 288.705,159.090 289.200 C 159.456 290.362,159.468 289.808,159.105 288.500 C 158.952 287.950,158.822 287.680,158.817 287.900 M241.025 288.500 C 241.008 288.720,240.948 289.125,240.892 289.400 L 240.789 289.900 241.003 289.409 C 241.121 289.140,241.181 288.735,241.136 288.509 C 241.057 288.111,241.054 288.110,241.025 288.500 M159.416 290.600 C 159.411 290.765,159.534 291.305,159.690 291.800 C 159.846 292.295,159.978 292.565,159.984 292.400 C 159.989 292.235,159.866 291.695,159.710 291.200 C 159.554 290.705,159.422 290.435,159.416 290.600 M240.215 292.215 C 240.073 292.770,239.995 293.262,240.042 293.308 C 240.088 293.355,240.242 292.939,240.385 292.385 C 240.527 291.830,240.605 291.338,240.558 291.292 C 240.512 291.245,240.358 291.661,240.215 292.215 M160.017 293.300 C 160.011 293.520,160.134 294.105,160.290 294.600 C 160.656 295.762,160.668 295.208,160.305 293.900 C 160.152 293.350,160.022 293.080,160.017 293.300 M239.645 294.689 C 239.510 295.193,239.406 295.762,239.413 295.953 C 239.420 296.144,239.558 295.812,239.718 295.215 C 239.879 294.618,239.983 294.049,239.950 293.951 C 239.917 293.852,239.780 294.184,239.645 294.689 M160.616 295.800 C 160.611 295.965,160.734 296.505,160.890 297.000 C 161.046 297.495,161.178 297.765,161.184 297.600 C 161.189 297.435,161.066 296.895,160.910 296.400 C 160.754 295.905,160.622 295.635,160.616 295.800 M239.015 297.615 C 238.873 298.170,238.795 298.662,238.842 298.708 C 238.888 298.755,239.042 298.339,239.185 297.785 C 239.327 297.230,239.405 296.738,239.358 296.692 C 239.312 296.645,239.158 297.061,239.015 297.615 M161.213 298.327 C 161.206 298.562,161.331 299.057,161.492 299.427 C 161.866 300.289,161.876 299.960,161.510 298.800 C 161.351 298.294,161.221 298.087,161.213 298.327 M238.415 300.015 C 238.273 300.570,238.195 301.062,238.242 301.108 C 238.288 301.155,238.442 300.739,238.585 300.185 C 238.727 299.630,238.805 299.138,238.758 299.092 C 238.712 299.045,238.558 299.461,238.415 300.015 M161.816 300.500 C 161.811 300.720,161.936 301.260,162.094 301.700 C 162.467 302.736,162.480 302.174,162.110 301.000 C 161.954 300.505,161.822 300.280,161.816 300.500 M237.849 302.195 C 237.498 303.321,237.556 303.679,237.922 302.636 C 238.088 302.161,238.196 301.688,238.161 301.584 C 238.127 301.481,237.986 301.755,237.849 302.195 M162.417 303.000 C 162.411 303.275,162.534 303.905,162.690 304.400 C 163.056 305.563,163.069 304.811,162.705 303.500 C 162.530 302.871,162.423 302.685,162.417 303.000 M237.228 304.747 C 237.079 305.420,237.004 306.089,237.063 306.235 C 237.121 306.381,237.176 306.266,237.184 305.980 C 237.193 305.694,237.297 305.180,237.416 304.839 C 237.535 304.497,237.603 304.062,237.566 303.871 C 237.529 303.681,237.377 304.075,237.228 304.747 M306.966 307.150 C 306.904 307.779,306.857 308.294,306.828 308.650 C 306.788 309.152,239.525 309.199,238.324 308.697 C 237.454 308.333,237.363 308.467,238.190 308.895 C 239.164 309.399,306.705 309.354,306.969 308.850 C 307.070 308.658,307.151 308.118,307.149 307.650 C 307.145 306.801,307.031 306.487,306.966 307.150 " stroke="none" fill="#bb8c35" fill-rule="evenodd"></path></g></svg>